<svg class="svg-icon" style="width: 1em;height: 1em;vertical-align: middle;fill: currentColor;overflow: hidden;" viewBox="0 0 1024 1024" version="1.1" xmlns="http://www.w3.org/2000/svg"><path d="M512 233.6l19.2-32c11.2-20.8 36.8-27.2 57.6-16 20.8 11.2 27.2 36.8 16 57.6L422.4 555.2h131.2c41.6 0 65.6 49.6 48 84.8H219.2c-24 0-41.6-19.2-41.6-41.6 0-24 19.2-41.6 41.6-41.6h107.2l137.6-240-43.2-75.2c-11.2-20.8-4.8-46.4 16-57.6 20.8-11.2 46.4-4.8 57.6 16l17.6 33.6zM348.8 683.2l-40 70.4c-11.2 20.8-36.8 27.2-57.6 16-20.8-11.2-27.2-36.8-16-57.6l30.4-52.8c33.6-11.2 62.4-3.2 83.2 24z m348.8-128h110.4c24 0 41.6 19.2 41.6 41.6 0 24-19.2 41.6-41.6 41.6h-60.8l41.6 72c11.2 20.8 4.8 46.4-16 57.6-20.8 11.2-46.4 4.8-57.6-16-68.8-120-121.6-209.6-155.2-270.4-35.2-60.8-9.6-121.6 14.4-142.4 27.2 49.6 68.8 121.6 123.2 216zM512 0C228.8 0 0 228.8 0 512s228.8 512 512 512 512-228.8 512-512S795.2 0 512 0z m446.4 512c0 244.8-198.4 446.4-446.4 446.4C267.2 958.4 65.6 760 65.6 512 65.6 267.2 264 65.6 512 65.6c244.8 0 446.4 198.4 446.4 446.4z"  /></svg>