<svg class="svg-icon" style="width: 1em; height: 1em;vertical-align: middle;fill: currentColor;overflow: hidden;" viewBox="0 0 1024 1024" version="1.1" xmlns="http://www.w3.org/2000/svg"><path d="M634.88 573.44c0 43.008-23.552 83.968-60.416 105.472-3.072 2.048-7.168 3.072-10.24 3.072-7.168 0-14.336-4.096-17.408-10.24-6.144-10.24-2.048-22.528 7.168-27.648 24.576-14.336 39.936-40.96 39.936-70.656 0-45.056-36.864-81.92-81.92-81.92s-81.92 36.864-81.92 81.92c0 28.672 15.36 56.32 39.936 70.656 10.24 6.144 13.312 18.432 7.168 27.648-6.144 10.24-18.432 13.312-27.648 7.168C412.672 657.408 389.12 616.448 389.12 573.44c0-67.584 55.296-122.88 122.88-122.88s122.88 55.296 122.88 122.88zM512 348.16c-123.904 0-225.28 101.376-225.28 225.28 0 74.752 36.864 144.384 98.304 186.368 3.072 2.048 7.168 3.072 11.264 3.072 6.144 0 13.312-3.072 17.408-9.216 6.144-9.216 4.096-22.528-5.12-28.672C357.376 691.2 327.68 634.88 327.68 573.44c0-101.376 82.944-184.32 184.32-184.32s184.32 82.944 184.32 184.32c0 60.416-30.72 117.76-80.896 151.552-9.216 6.144-12.288 19.456-5.12 28.672 6.144 9.216 19.456 12.288 28.672 5.12C700.416 716.8 737.28 648.192 737.28 573.44c0-123.904-101.376-225.28-225.28-225.28z m0-102.4c-180.224 0-327.68 147.456-327.68 327.68 0 98.304 44.032 190.464 119.808 252.928 9.216 7.168 21.504 6.144 28.672-3.072 7.168-9.216 6.144-21.504-3.072-28.672C263.168 740.352 225.28 659.456 225.28 573.44c0-157.696 129.024-286.72 286.72-286.72s286.72 129.024 286.72 286.72c0 87.04-38.912 167.936-106.496 222.208-9.216 7.168-10.24 20.48-3.072 28.672 4.096 5.12 10.24 7.168 16.384 7.168 4.096 0 9.216-1.024 13.312-4.096C795.648 765.952 839.68 672.768 839.68 573.44c0-180.224-147.456-327.68-327.68-327.68z m0-102.4C274.432 143.36 81.92 335.872 81.92 573.44c0 116.736 45.056 225.28 128 305.152 8.192 8.192 21.504 8.192 28.672 0 8.192-8.192 8.192-21.504 0-28.672C163.84 777.216 122.88 678.912 122.88 573.44c0-215.04 174.08-389.12 389.12-389.12s389.12 174.08 389.12 389.12c0 105.472-40.96 203.776-116.736 278.528-8.192 8.192-8.192 20.48 0 28.672 4.096 4.096 9.216 6.144 14.336 6.144s10.24-2.048 14.336-6.144C896 798.72 942.08 689.152 942.08 573.44c0-237.568-192.512-430.08-430.08-430.08z m0 399.36c-17.408 0-30.72 13.312-30.72 30.72 0 18.432 10.24 34.816 30.72 51.2 20.48-16.384 30.72-32.768 30.72-51.2 0-17.408-13.312-30.72-30.72-30.72z"  /></svg>